<?xml version="1.0" encoding="utf-8"?>
<!-- Svg Vector Icons : http://www.onlinewebfonts.com/icon -->
<!DOCTYPE svg PUBLIC "-//W3C//DTD SVG 1.1//EN" "http://www.w3.org/Graphics/SVG/1.1/DTD/svg11.dtd">
<svg version="1.1" xmlns="http://www.w3.org/2000/svg" xmlns:xlink="http://www.w3.org/1999/xlink" x="0px" y="0px" viewBox="0 0 1000 1000" enable-background="new 0 0 1000 1000" xml:space="preserve">
<metadata> Svg Vector Icons : http://www.onlinewebfonts.com/icon </metadata>
<g><path d="M743.7,613.6v69.6c0,21.3-7.8,40.2-23.3,56.7c-15.5,16.5-35.5,29.4-59.9,38.6c-24.4,9.2-49.5,16.1-75.3,20.7s-50.7,7-75,7c-87.2,0-160-29.6-218.5-88.7c-58.5-59.1-87.7-132.7-87.7-220.7c0-86.3,28.9-158.4,86.7-216.2C348.6,222.9,420.7,194,507,194c14.5,0,30.5,1,48.2,2.9c17.6,1.9,37.4,5.7,59.4,11.5c21.9,5.8,41.6,13,59,21.7c17.4,8.7,32.1,20.7,44,36c11.9,15.3,17.9,32.5,17.9,51.7v69.6c0,6.8-3.4,10.2-10.2,10.2H650c-6.8,0-10.2-3.4-10.2-10.2v-44.7c0-18.3-13.9-32.6-41.8-43c-27.9-10.4-57.1-15.6-87.7-15.6c-59.6,0-108.1,19.5-145.8,58.4c-37.6,38.9-56.4,89.4-56.4,151.5c0,64.2,19.5,117.3,58.4,159.1c38.9,41.9,88.6,62.8,148.9,62.9c28.9,0,58.2-5.1,88-15.3c29.8-10.2,44.7-24.2,44.7-42.1v-44.7c0-3,1-5.4,2.9-7.3c1.9-1.9,4.1-2.9,6.7-2.9h75.9c2.6,0,4.9,1,7,2.9c2.1,1.9,3.2,4.4,3.2,7.3L743.7,613.6z M500.1,91.7c-55.3,0-108.1,10.8-158.5,32.5c-50.4,21.7-93.7,50.7-130.2,87s-65.4,79.7-87,130.2C102.8,391.8,92,444.7,91.9,499.9s10.8,108.1,32.5,158.5c21.7,50.4,50.7,93.8,87,130.2c36.3,36.4,79.7,65.4,130.2,87c50.5,21.7,103.3,32.5,158.5,32.5c55.2,0,108-10.8,158.5-32.5c50.5-21.7,93.8-50.7,130.2-87c36.3-36.4,65.3-79.8,87-130.2c21.7-50.4,32.6-103.2,32.5-158.5s-10.9-108.1-32.5-158.5c-21.6-50.4-50.6-93.8-87-130.2c-36.4-36.4-79.8-65.4-130.2-87C608.2,102.6,555.4,91.7,500.1,91.7L500.1,91.7z M990,500c0,88.9-21.9,170.9-65.7,245.9C880.4,821,821,880.4,745.9,924.3C670.9,968.1,588.9,990,500,990c-88.9,0-170.9-21.9-245.9-65.7C179,880.4,119.6,821,75.7,745.9C31.9,670.9,10,588.9,10,500c0-88.9,21.9-170.9,65.7-245.9C119.6,179,179,119.6,254.1,75.7C329.1,31.9,411.1,10,500,10c88.9,0,170.9,21.9,245.9,65.7C821,119.6,880.4,179,924.3,254.1C968.1,329.1,990,411.1,990,500z"/></g>
</svg>